<mxfile host="app.diagrams.net" modified="2023-04-03T01:06:37.597Z" agent="Mozilla/5.0 (Windows NT 10.0; Win64; x64) AppleWebKit/537.36 (KHTML, like Gecko) Chrome/111.0.0.0 Safari/537.36" etag="-M55-yWjoYQajJBHveAO" version="21.1.2" type="device">
  <diagram name="페이지-1" id="CBGRLW48e57lPnHWjl4p">
    <mxGraphModel dx="1500" dy="819" grid="0" gridSize="10" guides="1" tooltips="1" connect="1" arrows="1" fold="1" page="1" pageScale="1" pageWidth="827" pageHeight="1169" math="0" shadow="0">
      <root>
        <mxCell id="0" />
        <mxCell id="1" parent="0" />
        <mxCell id="TnfRy05EJzYpmiWlhAYZ-1" value="" style="rounded=0;whiteSpace=wrap;html=1;" vertex="1" parent="1">
          <mxGeometry x="40" y="40" width="780" height="839" as="geometry" />
        </mxCell>
        <mxCell id="TnfRy05EJzYpmiWlhAYZ-2" value="header" style="rounded=0;whiteSpace=wrap;html=1;" vertex="1" parent="1">
          <mxGeometry x="50" y="50" width="760" height="40" as="geometry" />
        </mxCell>
        <mxCell id="TnfRy05EJzYpmiWlhAYZ-3" value="nav" style="rounded=0;whiteSpace=wrap;html=1;" vertex="1" parent="1">
          <mxGeometry x="50" y="100" width="760" height="40" as="geometry" />
        </mxCell>
        <mxCell id="TnfRy05EJzYpmiWlhAYZ-4" value="" style="rounded=0;whiteSpace=wrap;html=1;" vertex="1" parent="1">
          <mxGeometry x="50" y="150" width="760" height="641" as="geometry" />
        </mxCell>
        <mxCell id="TnfRy05EJzYpmiWlhAYZ-12" value="" style="group" vertex="1" connectable="0" parent="1">
          <mxGeometry x="60" y="207" width="740" height="100" as="geometry" />
        </mxCell>
        <mxCell id="TnfRy05EJzYpmiWlhAYZ-5" value="" style="rounded=0;whiteSpace=wrap;html=1;align=left;" vertex="1" parent="TnfRy05EJzYpmiWlhAYZ-12">
          <mxGeometry width="740" height="100" as="geometry" />
        </mxCell>
        <mxCell id="TnfRy05EJzYpmiWlhAYZ-10" value="article" style="rounded=0;whiteSpace=wrap;html=1;" vertex="1" parent="TnfRy05EJzYpmiWlhAYZ-12">
          <mxGeometry x="20" y="40" width="700" height="40" as="geometry" />
        </mxCell>
        <mxCell id="TnfRy05EJzYpmiWlhAYZ-11" value="section" style="text;strokeColor=none;fillColor=none;html=1;fontSize=13;fontStyle=0;verticalAlign=middle;align=center;" vertex="1" parent="TnfRy05EJzYpmiWlhAYZ-12">
          <mxGeometry x="20" y="10" width="50" height="20" as="geometry" />
        </mxCell>
        <mxCell id="TnfRy05EJzYpmiWlhAYZ-14" value="" style="rounded=0;whiteSpace=wrap;html=1;align=left;" vertex="1" parent="1">
          <mxGeometry x="60" y="319" width="740" height="100" as="geometry" />
        </mxCell>
        <mxCell id="TnfRy05EJzYpmiWlhAYZ-15" value="article" style="rounded=0;whiteSpace=wrap;html=1;" vertex="1" parent="1">
          <mxGeometry x="80" y="359" width="700" height="40" as="geometry" />
        </mxCell>
        <mxCell id="TnfRy05EJzYpmiWlhAYZ-16" value="section" style="text;strokeColor=none;fillColor=none;html=1;fontSize=13;fontStyle=0;verticalAlign=middle;align=center;" vertex="1" parent="1">
          <mxGeometry x="80" y="329" width="50" height="20" as="geometry" />
        </mxCell>
        <mxCell id="TnfRy05EJzYpmiWlhAYZ-17" value="" style="rounded=0;whiteSpace=wrap;html=1;align=left;" vertex="1" parent="1">
          <mxGeometry x="60" y="431" width="740" height="100" as="geometry" />
        </mxCell>
        <mxCell id="TnfRy05EJzYpmiWlhAYZ-18" value="article" style="rounded=0;whiteSpace=wrap;html=1;" vertex="1" parent="1">
          <mxGeometry x="80" y="471" width="700" height="40" as="geometry" />
        </mxCell>
        <mxCell id="TnfRy05EJzYpmiWlhAYZ-19" value="section" style="text;strokeColor=none;fillColor=none;html=1;fontSize=13;fontStyle=0;verticalAlign=middle;align=center;" vertex="1" parent="1">
          <mxGeometry x="80" y="441" width="50" height="20" as="geometry" />
        </mxCell>
        <mxCell id="TnfRy05EJzYpmiWlhAYZ-20" value="" style="rounded=0;whiteSpace=wrap;html=1;align=left;" vertex="1" parent="1">
          <mxGeometry x="60" y="546" width="740" height="100" as="geometry" />
        </mxCell>
        <mxCell id="TnfRy05EJzYpmiWlhAYZ-21" value="article" style="rounded=0;whiteSpace=wrap;html=1;" vertex="1" parent="1">
          <mxGeometry x="80" y="586" width="700" height="40" as="geometry" />
        </mxCell>
        <mxCell id="TnfRy05EJzYpmiWlhAYZ-22" value="section" style="text;strokeColor=none;fillColor=none;html=1;fontSize=13;fontStyle=0;verticalAlign=middle;align=center;" vertex="1" parent="1">
          <mxGeometry x="80" y="556" width="50" height="20" as="geometry" />
        </mxCell>
        <mxCell id="TnfRy05EJzYpmiWlhAYZ-23" value="" style="rounded=0;whiteSpace=wrap;html=1;align=left;" vertex="1" parent="1">
          <mxGeometry x="60" y="657" width="740" height="100" as="geometry" />
        </mxCell>
        <mxCell id="TnfRy05EJzYpmiWlhAYZ-24" value="article" style="rounded=0;whiteSpace=wrap;html=1;" vertex="1" parent="1">
          <mxGeometry x="80" y="697" width="700" height="40" as="geometry" />
        </mxCell>
        <mxCell id="TnfRy05EJzYpmiWlhAYZ-25" value="section" style="text;strokeColor=none;fillColor=none;html=1;fontSize=13;fontStyle=0;verticalAlign=middle;align=center;" vertex="1" parent="1">
          <mxGeometry x="80" y="667" width="50" height="20" as="geometry" />
        </mxCell>
        <mxCell id="TnfRy05EJzYpmiWlhAYZ-26" value="main" style="text;strokeColor=none;fillColor=none;html=1;fontSize=13;fontStyle=0;verticalAlign=middle;align=center;" vertex="1" parent="1">
          <mxGeometry x="69" y="166" width="50" height="20" as="geometry" />
        </mxCell>
        <mxCell id="TnfRy05EJzYpmiWlhAYZ-27" value="footer" style="rounded=0;whiteSpace=wrap;html=1;" vertex="1" parent="1">
          <mxGeometry x="50" y="798" width="760" height="40" as="geometry" />
        </mxCell>
      </root>
    </mxGraphModel>
  </diagram>
</mxfile>
